<svg width="15" height="15" viewBox="0 0 15 15" fill="none" xmlns="http://www.w3.org/2000/svg">
<path d="M12.9652 14.464V11.4286C12.9652 11.0666 12.8939 10.7081 12.7553 10.3736C12.6168 10.0392 12.4137 9.73525 12.1577 9.47925C11.9017 9.22326 11.5978 9.0202 11.2634 8.88166C10.9289 8.74312 10.5704 8.67181 10.2084 8.67181H7.81482V4.19752C7.81482 3.4861 7.23732 2.90967 6.52696 2.90967C5.81553 2.90967 5.23803 3.4861 5.23803 4.19752V10.0625L4.80946 10.1429C4.50856 10.1993 4.22652 10.33 3.98896 10.5231C3.75141 10.7162 3.56587 10.9656 3.4492 11.2487C3.33254 11.5317 3.28844 11.8394 3.32092 12.1439C3.35339 12.4483 3.46142 12.7398 3.63518 12.9918L3.80768 13.2425L4.64768 14.464" stroke="white" stroke-linecap="round" stroke-linejoin="round"/>
<path d="M2.78269 5.28401C2.65062 4.71655 2.64842 4.12659 2.77624 3.55816C2.90407 2.98972 3.15863 2.4575 3.52091 2.00121C3.8832 1.54492 4.34386 1.17635 4.86852 0.922995C5.39318 0.669642 5.96828 0.538055 6.55091 0.538055C7.13353 0.538055 7.70864 0.669642 8.2333 0.922995C8.75795 1.17635 9.21862 1.54492 9.5809 2.00121C9.94319 2.4575 10.1977 2.98972 10.3256 3.55816C10.4534 4.12659 10.4512 4.71655 10.3191 5.28401" stroke="white" stroke-linecap="round" stroke-linejoin="round"/>
</svg>
