<svg width="24" height="24" viewBox="0 0 24 24" fill="none" xmlns="http://www.w3.org/2000/svg">
<path fill-rule="evenodd" clip-rule="evenodd" d="M11.5015 14.2796C9.44767 14.2795 7.44287 14.8923 5.75598 16.0359C4.06909 17.1795 2.78077 18.7992 2.0638 20.6777C1.80879 21.3422 2.35297 22 3.0793 22H19.9192C20.6478 22 21.1897 21.3422 20.937 20.6777C20.22 18.7992 18.9317 17.1795 17.2448 16.0359C15.5579 14.8923 13.5554 14.2795 11.5015 14.2796ZM16.5289 6.91249C16.5289 8.21537 15.9987 9.46488 15.0548 10.3862C14.1109 11.3074 12.8307 11.825 11.4959 11.825C10.161 11.825 8.88081 11.3074 7.93692 10.3862C6.99304 9.46488 6.46277 8.21537 6.46277 6.91249C6.46277 5.60962 6.99304 4.36011 7.93692 3.43884C8.88081 2.51756 10.161 2 11.4959 2C12.8307 2 14.1109 2.51756 15.0548 3.43884C15.9987 4.36011 16.5289 5.60962 16.5289 6.91249Z" fill="#AFB8C1"/>
</svg>
