<svg width="24" height="24" viewBox="0 0 24 24" fill="none" xmlns="http://www.w3.org/2000/svg">
<g clip-path="url(#clip0_341_552)">
<path d="M9.5 1.99979C10.1347 1.99969 10.7457 2.24102 11.209 2.67483C11.6724 3.10863 11.9534 3.70244 11.995 4.33579L12 4.49979V9.10479L17.442 9.70979C18.3855 9.81464 19.261 10.2516 19.9119 10.9427C20.5628 11.6337 20.9467 12.5337 20.995 13.4818L21 13.6848V13.9998C21 16.0782 20.1911 18.075 18.7445 19.5675C17.298 21.0599 15.3274 21.9308 13.25 21.9958L13 21.9998H12.326C10.8885 21.9998 9.47751 21.6124 8.24148 20.8784C7.00546 20.1444 5.99004 19.091 5.302 17.8288L5.171 17.5778L2.329 11.8938C1.969 11.1738 2.236 10.2108 3.076 9.86579C4.119 9.43879 5.11 9.35879 6.131 9.87779C6.353 9.99112 6.571 10.1291 6.785 10.2918L7 10.4618V4.49979C7 3.83675 7.26339 3.20086 7.73223 2.73202C8.20107 2.26318 8.83696 1.99979 9.5 1.99979ZM4 5.99979C4.26522 5.99979 4.51957 6.10514 4.70711 6.29268C4.89464 6.48022 5 6.73457 5 6.99979C5 7.265 4.89464 7.51936 4.70711 7.70689C4.51957 7.89443 4.26522 7.99979 4 7.99979H3C2.73478 7.99979 2.48043 7.89443 2.29289 7.70689C2.10536 7.51936 2 7.265 2 6.99979C2 6.73457 2.10536 6.48022 2.29289 6.29268C2.48043 6.10514 2.73478 5.99979 3 5.99979H4ZM16 4.99979C16.2549 5.00007 16.5 5.09767 16.6854 5.27263C16.8707 5.4476 16.9822 5.68674 16.9972 5.94118C17.0121 6.19562 16.9293 6.44617 16.7657 6.64162C16.6021 6.83707 16.3701 6.96268 16.117 6.99279L16 6.99979H15C14.7451 6.9995 14.5 6.90191 14.3146 6.72694C14.1293 6.55197 14.0178 6.31283 14.0028 6.05839C13.9879 5.80395 14.0707 5.55341 14.2343 5.35795C14.3979 5.1625 14.6299 5.03689 14.883 5.00679L15 4.99979H16ZM4.707 1.29279L5.707 2.29279C5.88916 2.48139 5.98995 2.73399 5.98767 2.99619C5.9854 3.25838 5.88023 3.5092 5.69482 3.6946C5.50941 3.88001 5.2586 3.98518 4.9964 3.98746C4.7342 3.98974 4.4816 3.88894 4.293 3.70679L3.293 2.70679C3.11084 2.51818 3.01005 2.26558 3.01233 2.00339C3.0146 1.74119 3.11977 1.49038 3.30518 1.30497C3.49059 1.11956 3.7414 1.01439 4.0036 1.01211C4.2658 1.00983 4.5184 1.11063 4.707 1.29279ZM15.707 1.29279C15.8945 1.48031 15.9998 1.73462 15.9998 1.99979C15.9998 2.26495 15.8945 2.51926 15.707 2.70679L14.707 3.70679C14.6148 3.8023 14.5044 3.87848 14.3824 3.93089C14.2604 3.9833 14.1292 4.01088 13.9964 4.01204C13.8636 4.01319 13.7319 3.98789 13.609 3.93761C13.4861 3.88733 13.3745 3.81307 13.2806 3.71918C13.1867 3.62529 13.1125 3.51364 13.0622 3.39074C13.0119 3.26784 12.9866 3.13616 12.9877 3.00339C12.9889 2.87061 13.0165 2.73939 13.0689 2.61738C13.1213 2.49538 13.1975 2.38503 13.293 2.29279L14.293 1.29279C14.4805 1.10532 14.7348 1 15 1C15.2652 1 15.5195 1.10532 15.707 1.29279Z" fill="#3F3F43"/>
</g>
<defs>
<clipPath id="clip0_341_552">
<rect width="24" height="24" fill="white"/>
</clipPath>
</defs>
</svg>
