<svg width="21" height="20" viewBox="0 0 21 20" fill="none" xmlns="http://www.w3.org/2000/svg">
<g id="ph:pencil" opacity="0.5">
<path id="Vector" d="M18.3184 5.71722L14.8567 2.25467C14.7416 2.13953 14.6049 2.04819 14.4545 1.98587C14.304 1.92355 14.1428 1.89148 13.98 1.89148C13.8172 1.89148 13.6559 1.92355 13.5055 1.98587C13.3551 2.04819 13.2184 2.13953 13.1033 2.25467L3.54933 11.8094C3.43371 11.9241 3.34205 12.0607 3.27967 12.2111C3.21729 12.3615 3.18543 12.5229 3.18595 12.6857V16.1483C3.18595 16.477 3.31656 16.7924 3.54904 17.0248C3.78152 17.2573 4.09684 17.3879 4.42562 17.3879H7.88817C8.05103 17.3884 8.21236 17.3566 8.3628 17.2942C8.51323 17.2318 8.64977 17.1402 8.76447 17.0246L18.3184 7.47058C18.4336 7.35546 18.5249 7.21879 18.5872 7.06837C18.6496 6.91794 18.6816 6.75672 18.6816 6.5939C18.6816 6.43108 18.6496 6.26985 18.5872 6.11943C18.5249 5.96901 18.4336 5.83234 18.3184 5.71722ZM4.68208 12.4293L11.2438 5.86753L12.5369 7.16066L5.97521 13.7216L4.68208 12.4293ZM4.42562 13.9254L6.6485 16.1483H4.42562V13.9254ZM8.14463 15.8918L6.8515 14.5987L13.4132 8.03695L14.7064 9.33008L8.14463 15.8918ZM15.5826 8.45379L12.1201 4.99124L13.9796 3.13174L17.4422 6.59351L15.5826 8.45379Z" fill="white"/>
</g>
</svg>
