<svg width="24" height="24" viewBox="0 0 24 24" fill="none" xmlns="http://www.w3.org/2000/svg">
<path d="M12.1402 2C8.216 2 5 5.2064 5 9.11984C5 10.6362 5.48432 12.0454 6.30392 13.2037L11.2688 21.7868C11.9641 22.6952 12.4263 22.5226 13.0045 21.7388L18.4808 12.4196C18.5912 12.2194 18.6781 12.0063 18.7537 11.7886C19.1012 10.9418 19.2799 10.0352 19.2798 9.11984C19.28 5.2064 16.065 2 12.1402 2ZM12.1402 5.336C14.2537 5.336 15.9342 7.01264 15.9342 9.11984C15.9342 11.227 14.2537 12.903 12.1402 12.903C10.027 12.903 8.34584 11.2273 8.34584 9.11984C8.34584 7.01264 10.027 5.33624 12.1402 5.33624" fill="#AFB8C1"/>
</svg>
